<svg width="20" height="20" viewBox="0 0 20 20" fill="none" xmlns="http://www.w3.org/2000/svg">
<path fill-rule="evenodd" clip-rule="evenodd" d="M10.3692 2L10.5 2.00002H11.65H11.6826C12.6351 2.00002 13.3956 2.00001 14.0099 2.0502C14.6399 2.10167 15.1818 2.20966 15.6795 2.46325C16.4791 2.87071 17.1293 3.52088 17.5368 4.32056C17.7904 4.81826 17.8984 5.36014 17.9498 5.99016C18 6.60441 18 7.36496 18 8.31739V8.35002V11.65V11.6827C18 12.6351 18 13.3956 17.9498 14.0099C17.8984 14.6399 17.7904 15.1818 17.5368 15.6795C17.1293 16.4792 16.4791 17.1293 15.6795 17.5368C15.1818 17.7904 14.6399 17.8984 14.0099 17.9498C13.3956 18 12.6351 18 11.6826 18H11.65H10L9.9216 18L9.77567 18H8.35H8.31737C7.36493 18 6.60439 18 5.99013 17.9498C5.36012 17.8984 4.81824 17.7904 4.32054 17.5368C3.52085 17.1293 2.87068 16.4792 2.46322 15.6795C2.20963 15.1818 2.10165 14.6399 2.05018 14.0099C1.99999 13.3956 1.99999 12.6351 2 11.6826V11.65V8.35002V8.31741C1.99999 7.36497 1.99999 6.60442 2.05018 5.99016C2.10165 5.36014 2.20963 4.81826 2.46322 4.32056C2.87068 3.52088 3.52085 2.87071 4.32054 2.46325C4.81824 2.20966 5.36012 2.10167 5.99013 2.0502C6.6044 2.00001 7.36494 2.00002 8.31739 2.00002H8.35H10.1237L10.3692 2ZM5.00153 3.79976C5.2279 3.68441 5.51245 3.60578 5.96025 3.55926C5.60102 3.99838 5.32804 4.51138 5.1661 5.07347C4.99952 5.6517 4.9997 6.33253 4.99998 7.36927L5 7.50002V13L4.99999 13.0784C4.99989 13.7 4.99983 14.1075 5.06005 14.4619C5.18649 15.2061 5.50374 15.8829 5.96021 16.4408C5.51243 16.3943 5.22789 16.3156 5.00153 16.2003C4.48408 15.9366 4.06338 15.5159 3.79973 14.9985C3.67184 14.7475 3.58909 14.425 3.54519 13.8877C3.50058 13.3417 3.5 12.6425 3.5 11.65V8.35002C3.5 7.35756 3.50058 6.65831 3.54519 6.1123C3.58909 5.57505 3.67184 5.25254 3.79973 5.00155C4.06338 4.4841 4.48408 4.06341 5.00153 3.79976ZM8.78936 16.4612C9.00232 16.4974 9.27245 16.5 10 16.5H11.65C12.6425 16.5 13.3417 16.4994 13.8877 16.4548C14.425 16.4109 14.7475 16.3282 14.9985 16.2003C15.5159 15.9366 15.9366 15.5159 16.2003 14.9985C16.3282 14.7475 16.4109 14.425 16.4548 13.8877C16.4994 13.3417 16.5 12.6425 16.5 11.65V8.35002C16.5 7.35756 16.4994 6.65831 16.4548 6.1123C16.4109 5.57505 16.3282 5.25254 16.2003 5.00155C15.9366 4.4841 15.5159 4.06341 14.9985 3.79976C14.7475 3.67187 14.425 3.58911 13.8877 3.54522C13.3417 3.50061 12.6425 3.50002 11.65 3.50002H10.5C9.28539 3.50002 8.83612 3.50741 8.4887 3.6075C7.57984 3.86934 6.86932 4.57986 6.60748 5.48873C6.50739 5.83614 6.5 6.28541 6.5 7.50002V13C6.5 13.7276 6.50267 13.9977 6.53886 14.2107C6.73461 15.3628 7.6372 16.2654 8.78936 16.4612ZM11.5389 7.13379L11.5664 7.14994L13.4132 8.2368L13.4403 8.2527C13.7434 8.4311 14.0124 8.58933 14.2162 8.73612C14.4251 8.88657 14.6583 9.08772 14.7882 9.38521C14.9595 9.77721 14.9595 10.2228 14.7882 10.6148C14.6583 10.9123 14.4251 11.1135 14.2162 11.2639C14.0124 11.4107 13.7434 11.5689 13.4403 11.7473L13.4132 11.7632L11.5664 12.8501L11.5389 12.8663C11.2361 13.0445 10.9671 13.2028 10.74 13.3096C10.5105 13.4174 10.2123 13.5292 9.8748 13.4931C9.43029 13.4455 9.03651 13.2088 8.78526 12.8563C8.5975 12.5929 8.54522 12.2918 8.52251 12.0394C8.49997 11.789 8.49998 11.4753 8.5 11.1166L8.5 11.0869V8.91316L8.5 8.88343C8.49998 8.52478 8.49997 8.21101 8.52251 7.96063C8.54522 7.70829 8.5975 7.40711 8.78526 7.1437C9.03651 6.7912 9.43029 6.55458 9.87481 6.50696C10.2123 6.4708 10.5105 6.5826 10.74 6.69048C10.9671 6.79723 11.2361 6.95557 11.5389 7.13379ZM10.0059 7.88953C9.99172 7.89518 9.97657 7.90494 9.96254 7.92049C9.9576 7.93811 9.94629 7.9854 9.93763 8.08165C9.92122 8.26402 9.92056 8.51599 9.92056 8.91316V11.0869C9.92056 11.4841 9.92121 11.736 9.93763 11.9184C9.94629 12.0146 9.9576 12.0619 9.96254 12.0796C9.97657 12.0951 9.99172 12.1049 10.0059 12.1105C10.0266 12.1038 10.0641 12.09 10.123 12.0623C10.2824 11.9874 10.4935 11.864 10.8322 11.6647L12.679 10.5778C13.0175 10.3786 13.2282 10.2538 13.3721 10.1502C13.4422 10.0996 13.4748 10.0688 13.4875 10.0558C13.499 10.0199 13.499 9.98017 13.4875 9.94421C13.4748 9.9312 13.4422 9.9004 13.3721 9.84986C13.2282 9.74626 13.0175 9.62144 12.679 9.42224L10.8322 8.33538C10.4935 8.13605 10.2824 8.01267 10.123 7.93774C10.0641 7.91009 10.0266 7.89625 10.0059 7.88953Z" fill="black"/>
</svg>
