<svg width="20" height="20" viewBox="0 0 20 20" fill="none" xmlns="http://www.w3.org/2000/svg">
<path fill-rule="evenodd" clip-rule="evenodd" d="M3.32427 3.32781L3.33 3.32216C4.11585 2.54765 5.08048 2.24315 6.09846 2.10739C7.05113 1.98034 8.24208 1.9804 9.63416 1.98047L9.73314 1.98048H10.257L10.3557 1.98047C11.7448 1.9804 12.9358 1.98034 13.8884 2.10739C14.9049 2.24295 15.873 2.54729 16.6574 3.32592L16.6612 3.3297C17.4444 4.11265 17.7486 5.08435 17.884 6.09992C18.0111 7.05314 18.011 8.24533 18.011 9.63418V9.63425V10.3553V10.3554C18.011 11.7441 18.0111 12.9347 17.884 13.8872C17.7484 14.9036 17.4439 15.8716 16.665 16.6559L16.6612 16.6597C15.8781 17.4426 14.9063 17.7467 13.8907 17.882C12.9373 18.0091 11.7449 18.009 10.3556 18.0089H10.3556H9.63444H9.63437C8.2453 18.009 7.05439 18.0091 6.10174 17.882C5.08528 17.7465 4.11717 17.4421 3.33275 16.6635L3.32894 16.6597C2.54553 15.8765 2.23769 14.91 2.10065 13.8913C1.97253 12.9388 1.97259 11.7474 1.97266 10.3563L1.97266 10.2566V9.73283L1.97266 9.6341C1.97259 8.24539 1.97253 7.0547 2.09962 6.10219C2.23524 5.08582 2.53972 4.1178 3.3186 3.33352L3.32427 3.32781ZM4.38292 4.3905C3.47266 5.30708 3.47266 6.78669 3.47266 9.73283V10.2566C3.47266 13.2093 3.47266 14.6823 4.38947 15.5989C5.30627 16.5089 6.78626 16.5089 9.73314 16.5089H10.257C13.2039 16.5089 14.6904 16.5089 15.6007 15.5989C16.5109 14.6823 16.5109 13.2027 16.5109 10.2566V9.73283C16.5109 6.78669 16.5109 5.30053 15.6007 4.3905C14.6839 3.48048 13.2039 3.48048 10.257 3.48048H9.73314C6.77971 3.48048 5.30627 3.48048 4.38292 4.3905ZM10.0011 10.0069C9.3448 10.0069 8.73629 9.7333 8.30556 9.30205C7.87483 8.87079 7.60156 8.27579 7.60156 7.6045C7.60156 6.93423 7.87483 6.33211 8.30556 5.90696C8.73629 5.47673 9.33871 5.20312 10.0011 5.20312C10.6644 5.20312 11.2658 5.47673 11.6965 5.90798C12.1273 6.33821 12.4016 6.94135 12.4016 7.6045C12.4016 8.26867 12.1273 8.87079 11.6965 9.30205C11.2658 9.7333 10.6644 10.0069 10.0011 10.0069ZM9.28791 6.87727C9.10912 7.06239 8.98823 7.31768 8.98823 7.5984C8.98823 7.87912 9.10302 8.13441 9.28791 8.31952C9.4728 8.50464 9.72067 8.61855 10.0082 8.61855C10.2885 8.61855 10.5435 8.50464 10.7284 8.31952C10.9133 8.13441 11.0281 7.88522 11.0281 7.5984C11.0281 7.31768 10.9133 7.06239 10.7284 6.87727C10.5435 6.69216 10.2946 6.57723 10.0082 6.57723C9.72778 6.57723 9.4728 6.69216 9.28791 6.87727ZM13.1495 11.2467L13.1516 11.2446C13.2075 11.2168 13.235 11.1797 13.2451 11.1447C13.2574 11.1035 13.2462 11.0602 13.2156 11.0221L12.526 10.066C12.468 9.98765 12.352 9.97735 12.2838 10.0443C11.643 10.5996 10.8505 10.9613 9.99911 10.9613C9.14666 10.9613 8.36033 10.5986 7.71336 10.0433C7.64622 9.98559 7.53127 9.99486 7.4743 10.0629L7.47125 10.066L6.78156 11.0231C6.73273 11.0921 6.74189 11.1807 6.79987 11.2394L6.80394 11.2425C7.37461 11.7082 8.03481 12.0317 8.72145 12.2069L7.29425 14.7538C7.23525 14.8619 7.31561 15 7.4326 15H8.8598C8.92897 15 8.98695 14.9598 9.00831 14.8908L9.97877 12.6932L10.9502 14.8928C10.9706 14.9516 11.0296 15 11.0977 15H12.5249C12.6511 15 12.7233 14.8733 12.6643 14.7558L12.6633 14.7527L11.2351 12.2069C11.9207 12.0328 12.5799 11.7227 13.1495 11.2467Z" fill="black"/>
</svg>
