<svg width="20" height="20" viewBox="0 0 20 20" fill="none" xmlns="http://www.w3.org/2000/svg">
<g clip-path="url(#clip0_607_12154)">
<path fill-rule="evenodd" clip-rule="evenodd" d="M10.03 17.9971H9.9662C6.79038 17.9971 4.93306 17.6773 3.63932 16.4092C2.30749 15.0508 2 13.2068 2 10.0433V9.95383C2 6.79038 2.30749 4.93306 3.63932 3.58791C4.94544 2.31987 6.79039 2 9.96716 2H10.0309C13.1944 2 15.0517 2.31987 16.3569 3.58791C17.6887 4.94639 17.9962 6.79038 17.9962 9.95383V10.0433C17.9962 13.2077 17.6887 15.0641 16.3569 16.4092C15.0508 17.6773 13.2068 17.9971 10.03 17.9971ZM15.9815 9.76298C16.0424 9.76583 16.0919 9.81628 16.0919 9.8772L16.0909 10.1323C16.0909 10.1942 16.0414 10.2446 15.9805 10.2465C13.7941 10.3293 12.4643 10.6073 11.5325 11.5391C10.6016 12.4701 10.3236 13.7979 10.2399 15.9805C10.237 16.0414 10.1866 16.0909 10.1256 16.0909H9.86958C9.80771 16.0909 9.75727 16.0414 9.75536 15.9805C9.6716 13.7979 9.39366 12.4701 8.46274 11.5391C7.53182 10.6082 6.20113 10.3293 4.01471 10.2465C3.95379 10.2437 3.9043 10.1932 3.9043 10.1323V9.8772C3.9043 9.81533 3.95379 9.76488 4.01471 9.76298C6.20113 9.68016 7.53087 9.40222 8.46274 8.47035C9.39556 7.53753 9.6735 6.20494 9.75631 4.01471C9.75917 3.95379 9.80962 3.9043 9.87054 3.9043H10.1256C10.1875 3.9043 10.238 3.95379 10.2399 4.01471C10.3227 6.20589 10.6006 7.53753 11.5334 8.47035C12.4643 9.40127 13.795 9.68016 15.9815 9.76298Z" fill="black"/>
</g>
<defs>
<clipPath id="clip0_607_12154">
<rect width="16" height="16" fill="white" transform="translate(2 2)"/>
</clipPath>
</defs>
</svg>
